<?xml version="1.0" encoding="iso-8859-1"?>
<svg version="1.1" id="Capa_1" xmlns="http://www.w3.org/2000/svg" xmlns:xlink="http://www.w3.org/1999/xlink" x="0px" y="0px"
	 viewBox="0 0 512 512" style="enable-background:new 0 0 512 512;" xml:space="preserve">
		<polygon points="361,8.789 361,90 442.211,90 		"/>
		<polygon points="316,214.75 280.994,241 324.994,274.003 307.006,297.997 196,214.75 61,323.174 61,361 451,361 451,323.174 		"/>
		<path d="M166,90c-8.276,0-15,6.724-15,15s6.724,15,15,15s15-6.724,15-15S174.276,90,166,90z"/>
		<path d="M61,391v121h390V391H61z M331,451H181v-30h150V451z"/>
		<path d="M331,120V0H61v284.874L196,177.25l60.002,45.005L316,177.25l135,107.624V120H331z M166,150c-24.814,0-45-20.186-45-45
			c0-24.814,20.186-45,45-45c24.814,0,45,20.186,45,45C211,129.814,190.814,150,166,150z"/>
</svg>
