<?xml version="1.0" encoding="iso-8859-1"?>
<svg version="1.1" id="Capa_1" xmlns="http://www.w3.org/2000/svg" xmlns:xlink="http://www.w3.org/1999/xlink" x="0px" y="0px"
	 width="116.958px" height="116.958px" viewBox="0 0 116.958 116.958" style="enable-background:new 0 0 116.958 116.958;"
	 xml:space="preserve">
		<path d="M58.472,92.324c1.042,0,2.025-0.408,2.762-1.145l24.864-24.865c0.739-0.736,1.145-1.721,1.145-2.762
			s-0.405-2.026-1.145-2.764l-24.86-24.862c-1.477-1.474-4.048-1.474-5.524,0L30.846,60.79c-0.736,0.736-1.145,1.723-1.145,2.764
			s0.408,2.024,1.145,2.762l24.863,24.864C56.446,91.916,57.43,92.324,58.472,92.324z"/>
		<path d="M101.237,31.577c-8.543-11.419-21.022-18.832-35.138-20.873c-8.562-1.231-17.283-0.366-25.417,2.533L34.974,1.833
			c-0.564-1.129-1.747-1.948-3.186-1.819c-1.347,0.096-2.488,0.98-2.911,2.255l-7.371,22.117c-0.572,1.724,0.362,3.602,2.099,4.188
			l22.113,7.367c1.251,0.408,2.69,0.015,3.544-0.973c0.885-1.016,1.064-2.453,0.462-3.651l-5.525-11.041
			c6.677-2.217,13.792-2.85,20.786-1.835c12.052,1.736,22.701,8.064,29.996,17.821c7.274,9.732,10.324,21.735,8.584,33.799
			c-1.74,12.062-8.062,22.716-17.794,29.995c-9.723,7.271-21.778,10.344-33.807,8.606c-12.052-1.735-22.701-8.063-29.992-17.819
			c-5.814-7.769-8.95-16.986-9.076-26.654c-0.027-2.129-1.782-3.856-3.957-3.856c-2.156,0.03-3.884,1.805-3.857,3.96
			C5.23,75.621,8.909,86.421,15.715,95.529c8.539,11.418,21.014,18.832,35.131,20.873c2.575,0.369,5.177,0.557,7.737,0.557
			c11.537,0,22.556-3.682,31.865-10.645c11.423-8.543,18.836-21.02,20.869-35.135C113.358,57.066,109.775,43,101.237,31.577z"/>
</svg>
